<svg width="26" height="26" viewBox="0 0 26 26" version="1.1" xmlns="http://www.w3.org/2000/svg" xmlns:xlink="http://www.w3.org/1999/xlink">
<title>image copy 3</title>
<g id="Canvas" transform="translate(-1188 1011)">
<g id="image copy 3">
<g id="Group">
<g id="Fill 1">
<use xlink:href="#path0_fill" transform="translate(1188 -1011)" fill="#F5F5F5"/>
</g>
<g id="Fill 4">
<use xlink:href="#path1_fill" transform="translate(1188.36 -1010.85)" fill="#E42A18"/>
</g>
<g id="Fill 6">
<use xlink:href="#path2_fill" transform="translate(1188 -1010.99)" fill="#24356A"/>
</g>
</g>
</g>
</g>
<defs>
<path id="path0_fill" fill-rule="evenodd" d="M 0.384164 9.87728C 2.10861 2.90798 9.15526 -1.34107 16.1226 0.384027C 23.0919 2.10783 27.3403 9.15383 25.6165 16.1218C 23.8921 23.0898 16.8461 27.3408 9.87741 25.6157C 2.90941 23.8919 -1.34159 16.8453 0.384164 9.87728Z"/>
<path id="path1_fill" fill-rule="evenodd" d="M 9.52124 25.4651C 10.2902 25.6555 11.0604 25.7725 11.8242 25.8219L 13.4784 25.8219C 15.678 25.6815 17.7782 24.9808 19.5962 23.8303L 5.68494 23.8303C 6.83739 24.5596 8.12439 25.1199 9.52124 25.4651ZM 0.65065 17.8601L 24.6376 17.8601C 24.8892 17.2562 25.0978 16.6264 25.2597 15.9718C 25.2681 15.9374 25.2753 15.9029 25.2837 15.8685L 0 15.8685C 0.1638 16.5516 0.38155 17.2172 0.65065 17.8601ZM 25.608 11.8865L 14.5957 11.8865L 14.5957 13.8788L 25.6009 13.8788C 25.6548 13.2086 25.6561 12.543 25.608 11.8865ZM 15.7664 0.23335C 15.3764 0.1365 14.9857 0.0598 14.5957 0L 14.5957 1.93505L 19.706 1.93505C 18.5276 1.1726 17.2055 0.58955 15.7664 0.23335ZM 3.25649 21.84L 22.0324 21.84C 22.6135 21.2342 23.1387 20.5692 23.5982 19.8503L 1.69324 19.8503C 2.14759 20.5608 2.67084 21.2277 3.25649 21.84ZM 22.0948 3.92535L 14.5957 3.92535L 14.5957 5.91695L 23.6372 5.91695C 23.1894 5.2065 22.6733 4.53895 22.0948 3.92535ZM 24.6649 7.90662L 14.5957 7.90662L 14.5957 9.89692L 25.3038 9.89692C 25.1446 9.21507 24.9294 8.54947 24.6649 7.90662Z"/>
<path id="path2_fill" fill-rule="evenodd" d="M 14.9515 0.1391C 14.8241 0.1196 13.8764 0.0156 13.749 0L 11.4122 0.0858C 8.99096 0.38415 6.71921 1.3611 4.84851 2.86455L 4.89661 3.0121L 4.77506 2.92305C 4.34476 3.27405 3.93721 3.653 3.55371 4.05795L 3.74546 4.05795L 3.46466 4.2627L 3.57191 4.5929L 3.29046 4.3901L 3.17866 4.4707C 2.91606 4.77295 2.66776 5.08755 2.43311 5.41515L 2.47146 5.41515L 2.39021 5.4743C 2.33366 5.5549 2.27711 5.6355 2.22186 5.7174L 2.29726 5.94945L 2.14256 5.83765C 1.35216 7.0382 0.748314 8.39085 0.383014 9.8657C 0.378464 9.8852 0.373914 9.9047 0.369364 9.92355L 0.585164 9.92355L 0.691764 9.59205L 0.800314 9.92355L 1.14611 9.92355L 0.865964 10.1264L 0.972564 10.4585L 0.691764 10.2537L 0.410964 10.4585L 0.517564 10.1264L 0.350514 10.0054C 0.0307135 11.36 -0.0648364 12.7166 0.0417636 14.0348L 14.9515 14.0348L 14.9515 0.1391ZM 0.972577 13.288L 0.691777 13.0832L 0.410977 13.288L 0.517577 12.9578L 0.237427 12.7537L 0.585177 12.7537L 0.691777 12.4235L 0.800327 12.7537L 1.14613 12.7537L 0.865977 12.9578L 0.972577 13.288ZM 2.24589 11.7812L 1.96574 11.5765L 1.68364 11.7812L 1.79154 11.451L 1.51074 11.2469L 1.85784 11.2469L 1.96574 10.9167L 2.07169 11.2469L 2.41944 11.2469L 2.13799 11.451L 2.24589 11.7812ZM 2.16407 8.55334L 2.27197 8.88354L 1.99052 8.67879L 1.70972 8.88354L 1.81697 8.55334L 1.53552 8.34859L 1.88327 8.34859L 1.99052 8.01904L 2.09842 8.34859L 2.44552 8.34859L 2.16407 8.55334ZM 3.5719 13.288L 3.29045 13.0832L 3.0103 13.288L 3.1169 12.9578L 2.83545 12.7537L 3.18255 12.7537L 3.29045 12.4235L 3.3977 12.7537L 3.74545 12.7537L 3.46465 12.9578L 3.5719 13.288ZM 3.46465 10.1263L 3.5719 10.4585L 3.29045 10.2537L 3.0103 10.4585L 3.1169 10.1263L 2.83545 9.92354L 3.18255 9.92354L 3.29045 9.59204L 3.3977 9.92354L 3.74545 9.92354L 3.46465 10.1263ZM 3.46465 7.16235L 3.5719 7.49255L 3.29045 7.2878L 3.0103 7.49255L 3.1169 7.16235L 2.83545 6.95825L 3.18255 6.95825L 3.29045 6.62805L 3.3977 6.95825L 3.74545 6.95825L 3.46465 7.16235ZM 13.5774 1.16024L 13.6853 0.830688L 13.7919 1.16024L 14.139 1.16024L 13.8589 1.36499L 13.9661 1.69519L 13.6853 1.49044L 13.4039 1.69519L 13.5111 1.36499L 13.231 1.16024L 13.5774 1.16024ZM 13.5774 4.05794L 13.6853 3.72839L 13.7919 4.05794L 14.139 4.05794L 13.8589 4.26269L 13.9661 4.59289L 13.6853 4.39009L 13.4039 4.59289L 13.5111 4.26269L 13.231 4.05794L 13.5774 4.05794ZM 13.5774 6.95825L 13.6853 6.62805L 13.7919 6.95825L 14.139 6.95825L 13.8589 7.16235L 13.9661 7.49255L 13.6853 7.2878L 13.4039 7.49255L 13.5111 7.16235L 13.231 6.95825L 13.5774 6.95825ZM 13.5774 9.92354L 13.6853 9.59204L 13.7919 9.92354L 14.139 9.92354L 13.8589 10.1263L 13.9661 10.4585L 13.6853 10.2537L 13.4039 10.4585L 13.5111 10.1263L 13.231 9.92354L 13.5774 9.92354ZM 10.9793 1.16024L 11.0872 0.830688L 11.1932 1.16024L 11.5403 1.16024L 11.2595 1.36499L 11.368 1.69519L 11.0872 1.49044L 10.8051 1.69519L 10.913 1.36499L 10.6322 1.16024L 10.9793 1.16024ZM 4.84457 11.8326L 4.56377 11.6278L 4.28361 11.8326L 4.39021 11.5024L 4.10876 11.2976L 4.45716 11.2976L 4.56377 10.9681L 4.67167 11.2976L 5.01877 11.2976L 4.73732 11.5024L 4.84457 11.8326ZM 4.76405 8.60467L 4.8713 8.93422L 4.5905 8.73012L 4.30905 8.93422L 4.4163 8.60467L 4.1355 8.39992L 4.4826 8.39992L 4.5905 8.07037L 4.69645 8.39992L 5.0442 8.39992L 4.76405 8.60467ZM 4.7894 5.67254L 4.89665 6.00274L 4.6165 5.79799L 4.3344 6.00274L 4.44295 5.67254L 4.1615 5.46844L 4.50925 5.46844L 4.6165 5.13824L 4.7231 5.46844L 5.07085 5.46844L 4.7894 5.67254ZM 6.17131 13.288L 5.89051 13.0832L 5.60841 13.288L 5.71631 12.9578L 5.43616 12.7537L 5.78196 12.7537L 5.89051 12.4235L 5.99646 12.7537L 6.34356 12.7537L 6.06276 12.9578L 6.17131 13.288ZM 6.06276 10.1263L 6.17131 10.4585L 5.89051 10.2537L 5.60841 10.4585L 5.71631 10.1263L 5.43616 9.92354L 5.78196 9.92354L 5.89051 9.59204L 5.99646 9.92354L 6.34356 9.92354L 6.06276 10.1263ZM 6.06276 7.16235L 6.17131 7.49255L 5.89051 7.2878L 5.60841 7.49255L 5.71631 7.16235L 5.43616 6.95825L 5.78196 6.95825L 5.89051 6.62805L 5.99646 6.95825L 6.34356 6.95825L 6.06276 7.16235ZM 6.06276 4.26269L 6.17131 4.59289L 5.89051 4.39009L 5.60841 4.59289L 5.71631 4.26269L 5.43616 4.05794L 5.78196 4.05794L 5.89051 3.72839L 5.99646 4.05794L 6.34356 4.05794L 6.06276 4.26269ZM 7.44332 11.8625L 7.16252 11.6578L 6.88172 11.8625L 6.98897 11.531L 6.70752 11.3282L 7.05397 11.3282L 7.16252 10.9987L 7.26912 11.3282L 7.61752 11.3282L 7.33672 11.531L 7.44332 11.8625ZM 7.36138 8.6333L 7.46928 8.96285L 7.18848 8.7581L 6.90638 8.96285L 7.01428 8.6333L 6.73413 8.42855L 7.08058 8.42855L 7.18848 8.099L 7.29508 8.42855L 7.64283 8.42855L 7.36138 8.6333ZM 7.38807 5.70117L 7.49597 6.03137L 7.21322 5.82857L 6.93307 6.03137L 7.04097 5.70117L 6.75952 5.49642L 7.10662 5.49642L 7.21322 5.16687L 7.32177 5.49642L 7.66822 5.49642L 7.38807 5.70117ZM 7.38807 2.70921L 7.49597 3.04071L 7.21322 2.83596L 6.93307 3.04071L 7.04097 2.70921L 6.75952 2.50641L 7.10662 2.50641L 7.21322 2.17621L 7.32177 2.50641L 7.66822 2.50641L 7.38807 2.70921ZM 8.76872 13.288L 8.48792 13.0832L 8.20647 13.288L 8.31372 12.9578L 8.03357 12.7537L 8.38067 12.7537L 8.48792 12.4235L 8.59517 12.7537L 8.94292 12.7537L 8.66147 12.9578L 8.76872 13.288ZM 8.66147 10.1263L 8.76872 10.4585L 8.48792 10.2537L 8.20647 10.4585L 8.31372 10.1263L 8.03357 9.92354L 8.38067 9.92354L 8.48792 9.59204L 8.59517 9.92354L 8.94292 9.92354L 8.66147 10.1263ZM 8.66147 7.16235L 8.76872 7.49255L 8.48792 7.2878L 8.20647 7.49255L 8.31372 7.16235L 8.03357 6.95825L 8.38067 6.95825L 8.48792 6.62805L 8.59517 6.95825L 8.94292 6.95825L 8.66147 7.16235ZM 8.66147 4.26269L 8.76872 4.59289L 8.48792 4.39009L 8.20647 4.59289L 8.31372 4.26269L 8.03357 4.05794L 8.38067 4.05794L 8.48792 3.72839L 8.59517 4.05794L 8.94292 4.05794L 8.66147 4.26269ZM 8.66147 1.36499L 8.76872 1.69519L 8.48792 1.49044L 8.20647 1.69519L 8.31372 1.36499L 8.03357 1.16024L 8.38067 1.16024L 8.48792 0.830688L 8.59517 1.16024L 8.94292 1.16024L 8.66147 1.36499ZM 10.042 11.9652L 9.76188 11.7605L 9.48043 11.9652L 9.58704 11.635L 9.30688 11.4303L 9.65333 11.4303L 9.76188 11.1007L 9.86848 11.4303L 10.2156 11.4303L 9.93478 11.635L 10.042 11.9652ZM 9.96148 8.7373L 10.0687 9.0675L 9.78728 8.86275L 9.50648 9.0675L 9.61373 8.7373L 9.33228 8.53255L 9.67938 8.53255L 9.78728 8.203L 9.89388 8.53255L 10.2423 8.53255L 9.96148 8.7373ZM 9.98614 5.80582L 10.094 6.13537L 9.81259 5.93062L 9.53114 6.13537L 9.63904 5.80582L 9.35889 5.60107L 9.70599 5.60107L 9.81259 5.27087L 9.91984 5.60107L 10.2676 5.60107L 9.98614 5.80582ZM 9.98614 2.81317L 10.094 3.14467L 9.81259 2.93992L 9.53114 3.14467L 9.63904 2.81317L 9.35889 2.61037L 9.70599 2.61037L 9.81259 2.27887L 9.91984 2.61037L 10.2676 2.61037L 9.98614 2.81317ZM 11.368 13.288L 11.0872 13.0832L 10.8051 13.288L 10.913 12.9578L 10.6322 12.7537L 10.9793 12.7537L 11.0872 12.4235L 11.1932 12.7537L 11.5403 12.7537L 11.2595 12.9578L 11.368 13.288ZM 11.2595 10.1263L 11.368 10.4585L 11.0872 10.2537L 10.8051 10.4585L 10.913 10.1263L 10.6322 9.92354L 10.9793 9.92354L 11.0872 9.59204L 11.1932 9.92354L 11.5403 9.92354L 11.2595 10.1263ZM 11.2595 7.16235L 11.368 7.49255L 11.0872 7.2878L 10.8051 7.49255L 10.913 7.16235L 10.6322 6.95825L 10.9793 6.95825L 11.0872 6.62805L 11.1932 6.95825L 11.5403 6.95825L 11.2595 7.16235ZM 11.2595 4.26269L 11.368 4.59289L 11.0872 4.39009L 10.8051 4.59289L 10.913 4.26269L 10.6322 4.05794L 10.9793 4.05794L 11.0872 3.72839L 11.1932 4.05794L 11.5403 4.05794L 11.2595 4.26269ZM 12.6414 11.9652L 12.3599 11.7605L 12.0791 11.9652L 12.1864 11.635L 11.9049 11.4303L 12.2527 11.4303L 12.3599 11.1007L 12.4672 11.4303L 12.8149 11.4303L 12.5335 11.635L 12.6414 11.9652ZM 12.5595 8.7373L 12.6667 9.0675L 12.3859 8.86275L 12.1051 9.0675L 12.2124 8.7373L 11.9303 8.53255L 12.2787 8.53255L 12.3859 8.203L 12.4925 8.53255L 12.8403 8.53255L 12.5595 8.7373ZM 12.5855 5.80582L 12.6927 6.13537L 12.4119 5.93062L 12.1305 6.13537L 12.2384 5.80582L 11.9569 5.60107L 12.304 5.60107L 12.4119 5.27087L 12.5192 5.60107L 12.8669 5.60107L 12.5855 5.80582ZM 12.5855 2.81317L 12.6927 3.14467L 12.4119 2.93992L 12.1305 3.14467L 12.2384 2.81317L 11.9569 2.61037L 12.304 2.61037L 12.4119 2.27887L 12.5192 2.61037L 12.8669 2.61037L 12.5855 2.81317ZM 13.9661 13.288L 13.6853 13.0832L 13.4039 13.288L 13.5111 12.9578L 13.231 12.7537L 13.5774 12.7537L 13.6853 12.4235L 13.7919 12.7537L 14.1397 12.7537L 13.8589 12.9578L 13.9661 13.288Z"/>
</defs>
</svg>
