<svg width="18" height="14" viewBox="0 0 18 14" version="1.1" xmlns="http://www.w3.org/2000/svg" xmlns:xlink="http://www.w3.org/1999/xlink">
<title>Page 1</title>
<g id="Canvas" transform="translate(-401 -1497)">
<g id="Page 1">
<g id="Fill 3">
<use xlink:href="#path0_fill" transform="translate(401.625 1497.62)" fill="#F99D0B"/>
</g>
<g id="Stroke 5">
<use xlink:href="#path1_stroke" transform="translate(401.625 1497.62)" fill="#506C77"/>
</g>
<g id="Fill 6">
<use xlink:href="#path2_fill" transform="translate(401.625 1502)" fill="#F99D0B"/>
</g>
<g id="Stroke 7">
<use xlink:href="#path3_stroke" transform="translate(401.625 1502)" fill="#506C77"/>
</g>
<g id="Fill 8">
<use xlink:href="#path4_fill" transform="translate(401.625 1497.62)" fill="#F99D0B"/>
</g>
<g id="Stroke 9">
<use xlink:href="#path5_stroke" transform="translate(401.625 1497.62)" fill="#506C77"/>
</g>
</g>
</g>
<defs>
<path id="path0_fill" fill-rule="evenodd" d="M 0 12.75L 16.75 12.75L 16.75 0L 0 0L 0 12.75Z"/>
<path id="path1_stroke" d="M 0 12.75L -0.5 12.75C -0.5 13.0261 -0.276142 13.25 1.11022e-16 13.25L 0 12.75ZM 16.75 12.75L 16.75 13.25C 17.0261 13.25 17.25 13.0261 17.25 12.75L 16.75 12.75ZM 16.75 0L 17.25 0C 17.25 -0.276142 17.0261 -0.5 16.75 -0.5L 16.75 0ZM 0 0L 0 -0.5C -0.276142 -0.5 -0.5 -0.276142 -0.5 1.11022e-16L 0 0ZM 0 13.25L 16.75 13.25L 16.75 12.25L 0 12.25L 0 13.25ZM 17.25 12.75L 17.25 0L 16.25 0L 16.25 12.75L 17.25 12.75ZM 16.75 -0.5L 0 -0.5L 0 0.5L 16.75 0.5L 16.75 -0.5ZM -0.5 0L -0.5 12.75L 0.5 12.75L 0.5 0L -0.5 0Z"/>
<path id="path2_fill" fill-rule="evenodd" d="M 16.75 8.375L 8.375 0L 0 8.375L 16.75 8.375Z"/>
<path id="path3_stroke" d="M 16.75 8.375L 16.75 8.875C 16.9522 8.875 17.1345 8.75318 17.2119 8.56634C 17.2893 8.3795 17.2466 8.16445 17.1036 8.02145L 16.75 8.375ZM 8.375 0L 8.72855 -0.353553C 8.53329 -0.548816 8.21671 -0.548816 8.02145 -0.353553L 8.375 0ZM 0 8.375L -0.353553 8.02145C -0.496552 8.16445 -0.53933 8.3795 -0.46194 8.56634C -0.384549 8.75318 -0.202231 8.875 0 8.875L 0 8.375ZM 17.1036 8.02145L 8.72855 -0.353553L 8.02145 0.353553L 16.3964 8.72855L 17.1036 8.02145ZM 8.02145 -0.353553L -0.353553 8.02145L 0.353553 8.72855L 8.72855 0.353553L 8.02145 -0.353553ZM 0 8.875L 16.75 8.875L 16.75 7.875L 0 7.875L 0 8.875Z"/>
<path id="path4_fill" fill-rule="evenodd" d="M 0 0L 8.375 8.375L 16.75 0L 0 0Z"/>
<path id="path5_stroke" d="M 0 0L 0 -0.5C -0.202231 -0.5 -0.384549 -0.378179 -0.46194 -0.191342C -0.53933 -0.00450452 -0.496552 0.210554 -0.353553 0.353553L 0 0ZM 8.375 8.375L 8.02145 8.72855C 8.21671 8.92382 8.53329 8.92382 8.72855 8.72855L 8.375 8.375ZM 16.75 0L 17.1036 0.353553C 17.2466 0.210554 17.2893 -0.00450452 17.2119 -0.191342C 17.1345 -0.378179 16.9522 -0.5 16.75 -0.5L 16.75 0ZM -0.353553 0.353553L 8.02145 8.72855L 8.72855 8.02145L 0.353553 -0.353553L -0.353553 0.353553ZM 8.72855 8.72855L 17.1036 0.353553L 16.3964 -0.353553L 8.02145 8.02145L 8.72855 8.72855ZM 16.75 -0.5L 0 -0.5L 0 0.5L 16.75 0.5L 16.75 -0.5Z"/>
</defs>
</svg>
