<svg xmlns="http://www.w3.org/2000/svg" viewBox="0 0 16 16"><defs><style>.cls-1{fill:#f99d0b;}.cls-2{fill:#506c77;}</style></defs><title>phone_1</title><g id="Layer_2" data-name="Layer 2"><g id="Layer_1-2" data-name="Layer 1"><g id="Fill_3" data-name="Fill 3"><path id="path1_fill" data-name="path1 fill" class="cls-1" d="M14.22,15.5A13.74,13.74,0,0,1,.5,1.78,1.24,1.24,0,0,1,1.78.5H4.5A1.24,1.24,0,0,1,5.78,1.78a9.81,9.81,0,0,0,.36,2.53,1.12,1.12,0,0,1-.27,1.33L4.42,7.08a11.63,11.63,0,0,0,4.42,4.43l1.45-1.45a1.61,1.61,0,0,1,.93-.33,1.11,1.11,0,0,1,.36.06,8.36,8.36,0,0,0,2.64.44A1.24,1.24,0,0,1,15.5,11.5v2.72A1.24,1.24,0,0,1,14.22,15.5Z"/></g><g id="Stroke_5" data-name="Stroke 5"><path id="path2_stroke" data-name="path2 stroke" class="cls-2" d="M6.13,4.31l-.48.13a.5.5,0,0,0,0,.11ZM5.86,5.63l-.35-.35h0ZM4.42,7.08l-.35-.35a.5.5,0,0,0-.08.6Zm4.42,4.43-.24.44a.5.5,0,0,0,.59-.09Zm1.45-1.45L10,9.65l-.07.06Zm1.29-.28-.16.47h0ZM14.22,15A13.24,13.24,0,0,1,1,1.78H0A14.24,14.24,0,0,0,14.22,16ZM1,1.78A.74.74,0,0,1,1.78,1V0A1.74,1.74,0,0,0,0,1.78ZM1.78,1H4.5V0H1.78ZM4.5,1a.74.74,0,0,1,.78.78h1A1.74,1.74,0,0,0,4.5,0Zm.78.78a10.53,10.53,0,0,0,.37,2.66l1-.26a9.1,9.1,0,0,1-.34-2.4Zm.41,2.76a.62.62,0,0,1-.18.74L6.22,6a1.62,1.62,0,0,0,.35-1.92Zm-.18.74L4.07,6.72l.71.71L6.22,6ZM4,7.32A12.35,12.35,0,0,0,8.6,11.95l.48-.88A10.92,10.92,0,0,1,4.85,6.83Zm5.21,4.54,1.45-1.45L9.94,9.7,8.49,11.16Zm1.39-1.4a1.12,1.12,0,0,1,.64-.24v-1A2.11,2.11,0,0,0,10,9.65Zm.64-.24a.45.45,0,0,1,.2,0l.32-.95a1.86,1.86,0,0,0-.52-.08Zm.2,0a9.09,9.09,0,0,0,2.8.47v-1a7.65,7.65,0,0,1-2.48-.41Zm2.8.47a.74.74,0,0,1,.78.78h1a1.74,1.74,0,0,0-1.78-1.78Zm.78.78v2.72h1V11.5Zm0,2.72a.74.74,0,0,1-.78.78v1A1.74,1.74,0,0,0,16,14.22Z"/></g></g></g></svg>