<?xml version="1.0" encoding="UTF-8"?><!DOCTYPE svg PUBLIC "-//W3C//DTD SVG 1.1//EN" "http://www.w3.org/Graphics/SVG/1.1/DTD/svg11.dtd"><svg xmlns="http://www.w3.org/2000/svg"><defs>
        <style>
            .cls-1{fill:#f99d0b}.cls-2{fill:#506c77}
        </style>
    </defs><symbol id="icon-phone" viewBox="0 0 16 16">
    
    <title>
        phone_1
    </title>
    <g id="Layer_2" data-name="Layer 2">
        <g id="Layer_1-2" data-name="Layer 1">
            <g id="Fill_3" data-name="Fill 3">
                <path id="path1_fill" data-name="path1 fill" class="cls-1" d="M14.22 15.5A13.74 13.74 0 0 1 .5 1.78 1.24 1.24 0 0 1 1.78.5H4.5a1.24 1.24 0 0 1 1.28 1.28 9.81 9.81 0 0 0 .36 2.53 1.12 1.12 0 0 1-.27 1.33L4.42 7.08a11.63 11.63 0 0 0 4.42 4.43l1.45-1.45a1.61 1.61 0 0 1 .93-.33 1.11 1.11 0 0 1 .36.06 8.36 8.36 0 0 0 2.64.44 1.24 1.24 0 0 1 1.28 1.27v2.72a1.24 1.24 0 0 1-1.28 1.28z"/>
            </g>
            <g id="Stroke_5" data-name="Stroke 5">
                <path id="path2_stroke" data-name="path2 stroke" class="cls-2" d="M6.13 4.31l-.48.13a.5.5 0 0 0 0 .11zm-.27 1.32l-.35-.35zM4.42 7.08l-.35-.35a.5.5 0 0 0-.08.6zm4.42 4.43l-.24.44a.5.5 0 0 0 .59-.09zm1.45-1.45L10 9.65l-.07.06zm1.29-.28l-.16.47zM14.22 15A13.24 13.24 0 0 1 1 1.78H0A14.24 14.24 0 0 0 14.22 16zM1 1.78A.74.74 0 0 1 1.78 1V0A1.74 1.74 0 0 0 0 1.78zM1.78 1H4.5V0H1.78zM4.5 1a.74.74 0 0 1 .78.78h1A1.74 1.74 0 0 0 4.5 0zm.78.78a10.53 10.53 0 0 0 .37 2.66l1-.26a9.1 9.1 0 0 1-.34-2.4zm.41 2.76a.62.62 0 0 1-.18.74l.71.72a1.62 1.62 0 0 0 .35-1.92zm-.18.74L4.07 6.72l.71.71L6.22 6zM4 7.32a12.35 12.35 0 0 0 4.6 4.63l.48-.88a10.92 10.92 0 0 1-4.23-4.24zm5.21 4.54l1.45-1.45-.72-.71-1.45 1.46zm1.39-1.4a1.12 1.12 0 0 1 .64-.24v-1a2.11 2.11 0 0 0-1.24.43zm.64-.24a.45.45 0 0 1 .2 0l.32-.95a1.86 1.86 0 0 0-.52-.08zm.2 0a9.09 9.09 0 0 0 2.8.47v-1a7.65 7.65 0 0 1-2.48-.41zm2.8.47a.74.74 0 0 1 .78.78h1a1.74 1.74 0 0 0-1.78-1.78zm.78.78v2.72h1V11.5zm0 2.72a.74.74 0 0 1-.78.78v1A1.74 1.74 0 0 0 16 14.22z"/>
            </g>
        </g>
    </g>
</symbol></svg>