<svg width="30" height="30" viewBox="0 0 30 30" version="1.1" xmlns="http://www.w3.org/2000/svg" xmlns:xlink="http://www.w3.org/1999/xlink">
<title>ic_phone copy 3</title>
<g id="Canvas" transform="translate(-395 -1529)">
<g id="ico/40/ic_phone copy 3">
<g id="Page 1">
<g id="Fill 1">
<use xlink:href="#path0_fill" transform="translate(396 1530)" fill="#FFFFFF"/>
</g>
<g id="Fill 3">
<use xlink:href="#path1_fill" transform="translate(401 1535)" fill="#F99D0B"/>
</g>
<g id="Stroke 5">
<use xlink:href="#path2_stroke" transform="translate(401 1535)" fill="#506C77"/>
</g>
<g id="Fill 7">
<use xlink:href="#path3_fill" transform="translate(410.961 1544.96)" fill="#FFFFFF"/>
</g>
<g id="Stroke 9">
<use xlink:href="#path4_stroke" transform="translate(410.961 1544.96)" fill="#506C77"/>
</g>
<g id="Fill 11">
<use xlink:href="#path5_fill" transform="translate(402.697 1544.96)" fill="#FFFFFF"/>
</g>
<g id="Stroke 13">
<use xlink:href="#path6_stroke" transform="translate(402.697 1544.96)" fill="#506C77"/>
</g>
<g id="Fill 15">
<use xlink:href="#path7_fill" transform="translate(402.697 1536.7)" fill="#FFFFFF"/>
</g>
<g id="Stroke 17">
<use xlink:href="#path8_stroke" transform="translate(402.697 1536.7)" fill="#506C77"/>
</g>
<g id="Fill 19">
<use xlink:href="#path9_fill" transform="translate(410.961 1536.7)" fill="#FFFFFF"/>
</g>
<g id="Stroke 21">
<use xlink:href="#path10_stroke" transform="translate(410.961 1536.7)" fill="#506C77"/>
</g>
</g>
</g>
</g>
<defs>
<path id="path0_fill" fill-rule="evenodd" d="M 28 14C 28 21.732 21.732 28 14 28C 6.268 28 0 21.732 0 14C 0 6.268 6.268 0 14 0C 21.732 0 28 6.268 28 14"/>
<path id="path1_fill" fill-rule="evenodd" d="M 6.75725 11.2433C 5.51825 10.0043 5.51825 7.99625 6.75725 6.75725C 7.99625 5.51825 10.0043 5.51825 11.2433 6.75725C 12.4823 7.99625 12.4823 10.0043 11.2433 11.2433C 10.0043 12.4823 7.99625 12.4823 6.75725 11.2433L 6.75725 11.2433ZM 15.3643 2.63625C 11.8493 -0.87875 6.15125 -0.87875 2.63625 2.63625C -0.87875 6.15125 -0.87875 11.8493 2.63625 15.3643C 6.15125 18.8793 11.8493 18.8793 15.3643 15.3643C 18.8793 11.8493 18.8793 6.15125 15.3643 2.63625L 15.3643 2.63625Z"/>
<path id="path2_stroke" d="M 7.11081 10.8897C 6.06707 9.84596 6.06707 8.15454 7.11081 7.11081L 6.4037 6.4037C 4.96944 7.83796 4.96944 10.1625 6.4037 11.5968L 7.11081 10.8897ZM 7.11081 7.11081C 8.15454 6.06707 9.84596 6.06707 10.8897 7.11081L 11.5968 6.4037C 10.1625 4.96944 7.83796 4.96944 6.4037 6.4037L 7.11081 7.11081ZM 10.8897 7.11081C 11.9334 8.15454 11.9334 9.84596 10.8897 10.8897L 11.5968 11.5968C 13.0311 10.1625 13.0311 7.83796 11.5968 6.4037L 10.8897 7.11081ZM 10.8897 10.8897C 9.84596 11.9334 8.15454 11.9334 7.11081 10.8897L 6.4037 11.5968C 7.83796 13.0311 10.1625 13.0311 11.5968 11.5968L 10.8897 10.8897ZM 15.7178 2.2827C 12.0075 -1.42757 5.99296 -1.42757 2.2827 2.2827L 2.9898 2.9898C 6.30954 -0.329934 11.691 -0.329934 15.0107 2.9898L 15.7178 2.2827ZM 2.2827 2.2827C -1.42757 5.99296 -1.42757 12.0075 2.2827 15.7178L 2.9898 15.0107C -0.329934 11.691 -0.329934 6.30954 2.9898 2.9898L 2.2827 2.2827ZM 2.2827 15.7178C 5.99296 19.4281 12.0075 19.4281 15.7178 15.7178L 15.0107 15.0107C 11.691 18.3304 6.30954 18.3304 2.9898 15.0107L 2.2827 15.7178ZM 15.7178 15.7178C 19.4281 12.0075 19.4281 5.99296 15.7178 2.2827L 15.0107 2.9898C 18.3304 6.30954 18.3304 11.691 15.0107 15.0107L 15.7178 15.7178Z"/>
<path id="path3_fill" fill-rule="evenodd" d="M 5.403 5.403C 5.755 5.051 6.061 4.673 6.342 4.282L 2.06 0C 1.912 0.469 1.654 0.91 1.282 1.282C 0.91 1.654 0.469 1.912 0 2.06L 4.282 6.342C 4.673 6.061 5.051 5.755 5.403 5.403"/>
<path id="path4_stroke" d="M 6.342 4.282L 6.74802 4.5738C 6.89098 4.37487 6.86877 4.10166 6.69555 3.92845L 6.342 4.282ZM 2.06 0L 2.41355 -0.353553C 2.29001 -0.477099 2.11093 -0.527193 1.94122 -0.485685C 1.7715 -0.444178 1.63576 -0.317089 1.58318 -0.150468L 2.06 0ZM 0 2.06L -0.150468 1.58318C -0.317089 1.63576 -0.444178 1.7715 -0.485685 1.94122C -0.527193 2.11093 -0.477099 2.29001 -0.353553 2.41355L 0 2.06ZM 4.282 6.342L 3.92845 6.69555C 4.10166 6.86877 4.37487 6.89098 4.5738 6.74802L 4.282 6.342ZM 5.75655 5.75655C 6.1266 5.38554 6.45849 4.97632 6.74802 4.5738L 5.93598 3.9902C 5.66351 4.36968 5.3834 4.71646 5.04945 5.04945L 5.75655 5.75655ZM 6.69555 3.92845L 2.41355 -0.353553L 1.70645 0.353553L 5.98845 4.63555L 6.69555 3.92845ZM 1.58318 -0.150468C 1.45495 0.266258 1.2582 0.604481 0.928447 0.928447L 1.63555 1.63555C 2.0498 1.21552 2.36905 0.671742 2.53682 0.150468L 1.58318 -0.150468ZM 0.928447 0.928447C 0.604481 1.2582 0.266258 1.45495 -0.150468 1.58318L 0.150468 2.53682C 0.671742 2.36905 1.21552 2.0498 1.63555 1.63555L 0.928447 0.928447ZM -0.353553 2.41355L 3.92845 6.69555L 4.63555 5.98845L 0.353553 1.70645L -0.353553 2.41355ZM 4.5738 6.74802C 4.97632 6.45849 5.38554 6.1266 5.75655 5.75655L 5.04945 5.04945C 4.71646 5.3834 4.36968 5.66351 3.9902 5.93598L 4.5738 6.74802Z"/>
<path id="path5_fill" fill-rule="evenodd" d="M 0.939 5.403C 1.291 5.755 1.669 6.061 2.06 6.342L 6.342 2.06C 5.873 1.912 5.432 1.654 5.06 1.282C 4.688 0.91 4.43 0.469 4.282 0L 0 4.282C 0.281 4.673 0.587 5.051 0.939 5.403"/>
<path id="path6_stroke" d="M 2.06 6.342L 1.7682 6.74802C 1.96713 6.89098 2.24034 6.86877 2.41355 6.69555L 2.06 6.342ZM 6.342 2.06L 6.69555 2.41355C 6.8191 2.29001 6.86919 2.11093 6.82769 1.94122C 6.78618 1.7715 6.65909 1.63576 6.49247 1.58318L 6.342 2.06ZM 4.282 0L 4.75882 -0.150468C 4.70624 -0.317089 4.5705 -0.444178 4.40078 -0.485685C 4.23107 -0.527193 4.05199 -0.477099 3.92845 -0.353553L 4.282 0ZM 0 4.282L -0.353553 3.92845C -0.526772 4.10166 -0.548984 4.37487 -0.406023 4.5738L 0 4.282ZM 0.585447 5.75655C 0.956464 6.1266 1.36568 6.45849 1.7682 6.74802L 2.3518 5.93598C 1.97232 5.66351 1.62554 5.3834 1.29255 5.04945L 0.585447 5.75655ZM 2.41355 6.69555L 6.69555 2.41355L 5.98845 1.70645L 1.70645 5.98845L 2.41355 6.69555ZM 6.49247 1.58318C 6.07574 1.45495 5.73752 1.2582 5.41355 0.928447L 4.70645 1.63555C 5.12648 2.0498 5.67026 2.36905 6.19153 2.53682L 6.49247 1.58318ZM 5.41355 0.928447C 5.0838 0.604481 4.88705 0.266258 4.75882 -0.150468L 3.80518 0.150468C 3.97295 0.671742 4.2922 1.21552 4.70645 1.63555L 5.41355 0.928447ZM 3.92845 -0.353553L -0.353553 3.92845L 0.353553 4.63555L 4.63555 0.353553L 3.92845 -0.353553ZM -0.406023 4.5738C -0.116486 4.97632 0.215401 5.38554 0.585447 5.75655L 1.29255 5.04945C 0.958599 4.71646 0.678486 4.36968 0.406023 3.9902L -0.406023 4.5738Z"/>
<path id="path7_fill" fill-rule="evenodd" d="M 0.939 0.939C 0.587 1.291 0.281 1.669 0 2.06L 4.282 6.342C 4.43 5.873 4.688 5.432 5.06 5.06C 5.432 4.688 5.873 4.43 6.342 4.282L 2.06 0C 1.669 0.281 1.291 0.587 0.939 0.939"/>
<path id="path8_stroke" d="M 0 2.06L -0.406023 1.7682C -0.548984 1.96713 -0.526772 2.24034 -0.353553 2.41355L 0 2.06ZM 4.282 6.342L 3.92845 6.69555C 4.05199 6.8191 4.23107 6.86919 4.40078 6.82769C 4.5705 6.78618 4.70624 6.65909 4.75882 6.49247L 4.282 6.342ZM 6.342 4.282L 6.49247 4.75882C 6.65909 4.70624 6.78618 4.5705 6.82769 4.40078C 6.86919 4.23107 6.8191 4.05199 6.69555 3.92845L 6.342 4.282ZM 2.06 0L 2.41355 -0.353553C 2.24034 -0.526772 1.96713 -0.548984 1.7682 -0.406023L 2.06 0ZM 0.585447 0.585447C 0.215401 0.956464 -0.116486 1.36568 -0.406023 1.7682L 0.406023 2.3518C 0.678486 1.97232 0.958599 1.62554 1.29255 1.29255L 0.585447 0.585447ZM -0.353553 2.41355L 3.92845 6.69555L 4.63555 5.98845L 0.353553 1.70645L -0.353553 2.41355ZM 4.75882 6.49247C 4.88705 6.07574 5.0838 5.73752 5.41355 5.41355L 4.70645 4.70645C 4.2922 5.12648 3.97295 5.67026 3.80518 6.19153L 4.75882 6.49247ZM 5.41355 5.41355C 5.73752 5.0838 6.07574 4.88705 6.49247 4.75882L 6.19153 3.80518C 5.67026 3.97295 5.12648 4.2922 4.70645 4.70645L 5.41355 5.41355ZM 6.69555 3.92845L 2.41355 -0.353553L 1.70645 0.353553L 5.98845 4.63555L 6.69555 3.92845ZM 1.7682 -0.406023C 1.36568 -0.116486 0.956464 0.215401 0.585447 0.585447L 1.29255 1.29255C 1.62554 0.958599 1.97232 0.678486 2.3518 0.406023L 1.7682 -0.406023Z"/>
<path id="path9_fill" fill-rule="evenodd" d="M 5.403 0.939C 5.051 0.587 4.673 0.281 4.282 0L 0 4.282C 0.469 4.43 0.91 4.688 1.282 5.06C 1.654 5.432 1.912 5.873 2.06 6.342L 6.342 2.06C 6.061 1.669 5.755 1.291 5.403 0.939"/>
<path id="path10_stroke" d="M 4.282 0L 4.5738 -0.406023C 4.37487 -0.548984 4.10166 -0.526772 3.92845 -0.353553L 4.282 0ZM 0 4.282L -0.353553 3.92845C -0.477099 4.05199 -0.527193 4.23107 -0.485685 4.40078C -0.444178 4.5705 -0.317089 4.70624 -0.150468 4.75882L 0 4.282ZM 2.06 6.342L 1.58318 6.49247C 1.63576 6.65909 1.7715 6.78618 1.94122 6.82769C 2.11093 6.86919 2.29001 6.8191 2.41355 6.69555L 2.06 6.342ZM 6.342 2.06L 6.69555 2.41355C 6.86877 2.24034 6.89098 1.96713 6.74802 1.7682L 6.342 2.06ZM 5.75655 0.585447C 5.38554 0.215401 4.97632 -0.116486 4.5738 -0.406023L 3.9902 0.406023C 4.36968 0.678486 4.71646 0.958599 5.04945 1.29255L 5.75655 0.585447ZM 3.92845 -0.353553L -0.353553 3.92845L 0.353553 4.63555L 4.63555 0.353553L 3.92845 -0.353553ZM -0.150468 4.75882C 0.266258 4.88705 0.604481 5.0838 0.928447 5.41355L 1.63555 4.70645C 1.21552 4.2922 0.671742 3.97295 0.150468 3.80518L -0.150468 4.75882ZM 0.928447 5.41355C 1.2582 5.73752 1.45495 6.07574 1.58318 6.49247L 2.53682 6.19153C 2.36905 5.67026 2.0498 5.12648 1.63555 4.70645L 0.928447 5.41355ZM 2.41355 6.69555L 6.69555 2.41355L 5.98845 1.70645L 1.70645 5.98845L 2.41355 6.69555ZM 6.74802 1.7682C 6.45849 1.36568 6.1266 0.956464 5.75655 0.585447L 5.04945 1.29255C 5.3834 1.62554 5.66351 1.97232 5.93598 2.3518L 6.74802 1.7682Z"/>
</defs>
</svg>
