<svg width="164" height="35" viewBox="0 0 164 35" version="1.1" xmlns="http://www.w3.org/2000/svg" xmlns:xlink="http://www.w3.org/1999/xlink">
<title>Page 1</title>
<g id="Canvas" transform="translate(-71 1014)">
<g id="Page 1">
<g id="Fill 1" opacity="0.3">
<use xlink:href="#path0_fill" transform="translate(78.6293 -981.684)" fill="#FFFFFF"/>
</g>
<g id="Fill 3">
<use xlink:href="#path1_fill" transform="translate(80.3814 -988.409)" fill="#F99D0B"/>
</g>
<g id="Fill 5">
<use xlink:href="#path1_fill" transform="translate(91.3754 -989.046)" fill="#F99D0B"/>
</g>
<g id="Fill 7">
<use xlink:href="#path2_fill" transform="translate(70.9999 -1013.71)" fill="#F99D0B"/>
</g>
<g id="Fill 10">
<use xlink:href="#path3_fill" transform="translate(100.852 -1005.15)" fill="#F99D0B"/>
</g>
<g id="Fill 12">
<use xlink:href="#path4_fill" transform="translate(182.16 -1013.45)" fill="#F99D0B"/>
</g>
<g id="Fill 14">
<use xlink:href="#path3_fill" transform="translate(120.767 -1005.15)" fill="#F99D0B"/>
</g>
<g id="Fill 16">
<use xlink:href="#path5_fill" transform="translate(140.174 -1013.43)" fill="#F99D0B"/>
</g>
<g id="Fill 18">
<use xlink:href="#path6_fill" transform="translate(161.176 -1005.22)" fill="#F99D0B"/>
</g>
<g id="Fill 20">
<use xlink:href="#path7_fill" transform="translate(200.624 -1005.2)" fill="#F99D0B"/>
</g>
<g id="Fill 22">
<use xlink:href="#path8_fill" transform="translate(220.533 -1005.29)" fill="#F99D0B"/>
</g>
</g>
</g>
<defs>
<path id="path0_fill" fill-rule="evenodd" d="M 19.3434 1.22771C 19.3434 1.90571 15.0131 2.45543 9.67171 2.45543C 4.33029 2.45543 0 1.90571 0 1.22771C 0 0.549714 4.33029 0 9.67171 0C 15.0131 0 19.3434 0.549714 19.3434 1.22771"/>
<path id="path1_fill" fill-rule="evenodd" d="M 5.01257 2.50629C 5.01257 3.89057 3.89057 5.01257 2.50629 5.01257C 1.12229 5.01257 0 3.89057 0 2.50629C 0 1.122 1.12229 0 2.50629 0C 3.89057 0 5.01257 1.122 5.01257 2.50629"/>
<path id="path2_fill" fill-rule="evenodd" d="M 20.8477 7.80658C 20.8477 6.80144 20.4963 6.03229 19.7943 5.50001C 19.0917 4.96772 18.09 4.70172 16.7889 4.70172L 16.0571 11.5546L 16.8111 11.5546C 17.4911 11.5546 18.0866 11.4294 18.5966 11.1777C 19.1066 10.9263 19.528 10.616 19.8609 10.2463C 20.1934 9.87686 20.4409 9.47372 20.6037 9.03744C 20.7663 8.60144 20.8477 8.19144 20.8477 7.80658L 20.8477 7.80658ZM 15.0371 22.0006C 15.51 22.1486 16.02 22.2446 16.5671 22.2891C 17.1143 22.3334 17.6243 22.3554 18.0977 22.3554C 18.5706 22.3554 18.9809 22.2891 19.3283 22.156C 19.6757 22.0228 19.968 21.8454 20.2046 21.6237C 20.4409 21.402 20.6294 21.1546 20.77 20.8806C 20.9103 20.6074 21.0211 20.3337 21.1026 20.06C 21.184 19.7866 21.2357 19.5277 21.258 19.2837C 21.2803 19.0397 21.2911 18.8366 21.2911 18.674C 21.2911 18.2897 21.232 17.8977 21.1137 17.4986C 20.9954 17.0994 20.8106 16.7408 20.5594 16.4228C 20.3077 16.1051 19.986 15.8426 19.5946 15.6354C 19.2026 15.4286 18.7331 15.3251 18.1863 15.3251C 18.0531 15.3251 17.8791 15.3288 17.6651 15.336C 17.4506 15.3437 17.2249 15.3471 16.9886 15.3471C 16.752 15.3471 16.5191 15.3511 16.29 15.3583C 16.0606 15.366 15.8574 15.3694 15.68 15.3694L 15.0371 22.0006ZM 16.9443 27.8777C 16.6631 27.8777 16.2974 27.8703 15.8466 27.8557C 15.3951 27.8409 14.8963 27.8226 14.3494 27.8003C 13.8023 27.778 13.2257 27.7483 12.6197 27.7114C 12.0131 27.6746 11.4109 27.634 10.812 27.5897C 10.2131 27.5451 9.64 27.4974 9.09314 27.4454C 8.546 27.3937 8.058 27.3383 7.62943 27.2791L 9.86943 5.38914C 8.95257 5.65543 8.10971 5.96943 7.34114 6.33171C 6.57229 6.69429 5.92914 7.08257 5.41171 7.49629C 5.92914 7.80657 6.332 8.228 6.62029 8.76029C 6.90886 9.29257 7.05286 9.82486 7.05286 10.3571C 7.05286 10.8303 6.95657 11.2814 6.76457 11.71C 6.57229 12.1389 6.31314 12.516 5.98829 12.8411C 5.66286 13.1666 5.282 13.4214 4.84629 13.6063C 4.40971 13.7911 3.95514 13.8834 3.48229 13.8834C 2.93514 13.8834 2.44714 13.7726 2.01829 13.5506C 1.58943 13.3289 1.22343 13.0297 0.920571 12.6526C 0.617429 12.2754 0.388286 11.8509 0.233143 11.3774C 0.0777143 10.9043 0 10.4089 0 9.89143C 0 8.93029 0.255143 8.01743 0.765429 7.15229C 1.27543 6.28743 1.96629 5.48914 2.83914 4.75714C 3.71114 4.02514 4.73143 3.36371 5.89943 2.77229C 7.06743 2.18086 8.30943 1.682 9.62571 1.27514C 10.9411 0.868571 12.298 0.554286 13.6951 0.332571C 15.0926 0.110857 16.4566 0 17.7871 0C 19.1623 0 20.4629 0.132857 21.6906 0.399143C 22.9177 0.665143 23.9931 1.08314 24.9174 1.65229C 25.8411 2.22143 26.5731 2.94971 27.1131 3.83657C 27.6526 4.72371 27.9226 5.796 27.9226 7.05257C 27.9226 7.88057 27.8483 8.56457 27.7006 9.104C 27.5529 9.644 27.3531 10.106 27.102 10.4903C 26.8503 10.8749 26.566 11.2257 26.248 11.5434C 25.93 11.8617 25.6011 12.2129 25.2611 12.5971C 26.6806 13.1291 27.6971 13.9277 28.3106 14.9923C 28.924 16.0569 29.2311 17.2694 29.2311 18.6297C 29.2311 20.4483 28.9351 21.9529 28.344 23.1429C 27.7523 24.3331 26.9206 25.2797 25.8489 25.9817C 24.7766 26.684 23.4831 27.1757 21.9677 27.4563C 20.452 27.7371 18.7774 27.8777 16.9443 27.8777L 16.9443 27.8777Z"/>
<path id="path3_fill" fill-rule="evenodd" d="M 11.71 8.53856C 12.09 5.22827 9.52257 4.55599 8.42772 5.58884C 8.07 5.92599 7.79914 6.37627 7.56286 6.88627C 7.326 7.39627 7.13029 7.92856 6.97486 8.48313C 6.81972 9.03741 6.70514 9.57741 6.63143 10.102C 6.55686 10.6271 6.52029 11.0743 6.52029 11.444C 6.52029 11.6068 6.52372 11.8468 6.53143 12.1646C 6.53886 12.4826 6.594 12.8077 6.69772 13.1403C 6.80086 13.4731 6.97114 13.7614 7.20772 14.0054C 7.444 14.2494 7.78457 14.3714 8.228 14.3714C 8.89343 14.3714 9.44772 14.1683 9.89143 13.7614C 10.3349 13.3551 10.686 12.856 10.9449 12.2646C 11.2034 11.6734 11.3886 11.0374 11.4994 10.3571C 11.6103 9.67713 11.6803 9.07084 11.71 8.53856L 11.71 8.53856ZM 9.62543 0C 10.7931 0 11.8766 0.0631429 12.8743 0.188286C 13.8723 0.314286 14.7483 0.580286 15.5026 0.986857C 16.2566 1.39371 16.87 1.99229 17.3434 2.78343C 17.8163 3.57457 18.1117 4.63514 18.2306 5.966C 18.3046 7.45657 18.3014 8.584 18.1417 10.2906C 18.0794 10.9571 17.9454 11.6471 17.7757 12.3643C 17.6054 13.0814 17.3614 13.7766 17.0437 14.4489C 16.7257 15.122 16.3194 15.7611 15.824 16.3674C 15.3286 16.9737 14.7186 17.506 13.9943 17.9643C 13.2697 18.4226 12.4086 18.7849 11.4106 19.0509C 10.4126 19.3171 9.26257 19.4503 7.962 19.4503C 6.64571 19.4503 5.49257 19.3577 4.502 19.1729C 3.51143 18.9883 2.68343 18.6371 2.018 18.1194C 1.35286 17.602 0.85 16.874 0.51 15.9351C 0.170286 14.9963 0 13.7726 0 12.2646C 0 11.274 0.0591429 10.2831 0.177143 9.29257C 0.295429 8.30229 0.495143 7.352 0.776286 6.44257C 1.05686 5.53343 1.43771 4.68714 1.91829 3.90343C 2.39857 3.11971 2.994 2.43943 3.70371 1.86286C 4.41343 1.28629 5.25629 0.831429 6.232 0.498857C 7.20771 0.166286 8.33886 0 9.62543 0L 9.62543 0Z"/>
<path id="path4_fill" fill-rule="evenodd" d="M 8.40543 22.4C 8.834 22.4 9.20371 22.2003 9.51429 21.8011C 9.82486 21.402 10.0834 20.9177 10.2906 20.3485C 10.4974 19.7794 10.66 19.1805 10.7786 18.552C 10.8966 17.9237 10.9674 17.372 11.0226 16.8997C 11.496 12.8351 8.18029 11.4243 7.91743 14.0165C 7.76 15.5688 7.29657 20.2265 7.29657 20.2265C 7.26657 20.4337 7.24114 20.6477 7.21886 20.8694C 7.19686 21.0914 7.18571 21.3208 7.18571 21.5571C 7.27429 22.1194 7.68086 22.4 8.40543 22.4L 8.40543 22.4ZM 7.474 27.6117C 6.73457 27.6117 6.02114 27.5231 5.33371 27.3457C 4.64629 27.1683 3.992 26.928 3.37114 26.6249C 2.75 26.322 2.15457 25.9817 1.58571 25.6046C 1.01629 25.2277 0.487714 24.8397 0 24.4403L 2.43943 0.598571L 9.38114 0L 8.38314 9.51429C 8.94514 9.15971 9.49229 8.89343 10.0243 8.716C 10.5566 8.53857 11.1334 8.45 11.7543 8.45C 12.7003 8.45 13.5026 8.60886 14.1606 8.92686C 14.8183 9.24486 15.3583 9.66971 15.7797 10.202C 16.2009 10.7343 16.5229 11.3551 16.7446 12.0649C 16.9663 12.7746 17.1697 13.6394 17.188 14.3271C 17.2349 16.0917 17.1963 17.5854 17.0106 19.2063C 16.96 19.6477 16.8254 20.3671 16.6777 21.0029C 16.5297 21.6386 16.3154 22.2669 16.0349 22.8877C 15.7537 23.5089 15.3877 24.1043 14.9369 24.6731C 14.4857 25.2426 13.9166 25.7454 13.2291 26.1814C 12.5417 26.6177 11.7283 26.9651 10.7894 27.2237C 9.85029 27.4823 8.74543 27.6117 7.474 27.6117L 7.474 27.6117Z"/>
<path id="path5_fill" fill-rule="evenodd" d="M 19.3171 22.2003C 19.0511 22.3189 18.7551 22.3777 18.43 22.3777C 17.8386 22.3777 17.3689 22.2374 17.0217 21.9563C 16.6743 21.6757 16.4009 21.3094 16.2011 20.8583C 16.0014 20.4077 15.85 19.8974 15.7466 19.3283C 15.6429 18.7591 15.5431 18.186 15.4471 17.6094C 15.3509 17.0326 15.2254 16.4749 15.07 15.9349C 14.9149 15.3954 14.682 14.9257 14.3714 14.5266C 15.2437 13.5506 16.1271 12.5529 17.0217 11.5323C 17.916 10.5123 18.7994 9.51429 19.672 8.53829L 13.3957 8.18371L 8.228 14.8149L 9.78057 0L 2.77229 0.576286L 0 27.2789L 7.00829 27.2789L 7.56286 22.2666L 9.91371 19.5389C 9.91371 19.7606 9.89143 19.9823 9.84714 20.204C 9.87657 21.0911 9.98743 21.9749 10.18 22.8546C 10.3717 23.7343 10.7009 24.5254 11.1669 25.2274C 11.6326 25.93 12.2606 26.5029 13.0517 26.9463C 13.8426 27.39 14.8517 27.6117 16.0794 27.6117C 16.7591 27.6117 17.4394 27.482 18.1197 27.2234C 18.4483 27.0986 18.7669 26.9491 19.0766 26.7774L 19.5654 22.0689C 19.4837 22.1143 19.4034 22.162 19.3171 22.2003"/>
<path id="path6_fill" fill-rule="evenodd" d="M 10.1131 12.6417C 9.92086 13.174 9.62143 13.5512 9.21515 13.7729C 8.808 13.9949 8.42772 14.1054 8.07286 14.1054C 7.95429 14.1054 7.82143 14.0872 7.67372 14.05C 7.52572 14.0134 7.38543 13.906 7.25229 13.7286C 7.11915 13.5512 7.00829 13.2814 6.91972 12.9189C 6.83086 12.5569 6.78658 12.058 6.78658 11.422C 6.78658 10.446 6.86772 9.55172 7.03029 8.73858C 7.19315 7.92544 7.41086 7.23029 7.68458 6.65372C 7.95829 6.07715 8.276 5.62629 8.63829 5.30087C 9.00058 4.97572 9.38143 4.81287 9.78058 4.81287C 10.1057 4.81287 10.3423 4.90172 10.4903 5.07915C 10.6377 5.25629 10.7414 5.40429 10.8009 5.52258L 10.1131 12.6417ZM 19.1951 14.0834C 18.9069 14.2166 18.6149 14.2829 18.3191 14.2829C 18.0086 14.2829 17.7646 14.2091 17.5874 14.0611C 17.41 13.9134 17.284 13.7251 17.2103 13.4957C 17.1363 13.2666 17.0954 13.0114 17.0883 12.7306C 17.0806 12.4497 17.0917 12.1837 17.1217 11.9323L 18.2971 0.310857L 11.444 0L 11.2443 1.73029C 11.0371 1.58257 10.7931 1.42714 10.5126 1.26429C 10.2314 1.102 9.92086 0.950286 9.58086 0.809714C 9.24057 0.669429 8.87114 0.551429 8.472 0.454857C 8.07286 0.358857 7.65143 0.310857 7.208 0.310857C 6.35029 0.310857 5.58886 0.458857 4.92343 0.754286C 4.25829 1.05029 3.67771 1.44943 3.18257 1.952C 2.68686 2.45486 2.262 3.03143 1.90743 3.68171C 1.55229 4.33257 1.25657 5.01229 1.02029 5.72229C 0.783429 6.432 0.598857 7.14171 0.465714 7.85143C 0.332571 8.56114 0.229143 9.22629 0.155143 9.84743C 0.0811429 10.4683 0.0368571 11.0194 0.022 11.4997C 0.00714286 11.9803 0 12.3389 0 12.5754C 0 13.5366 0.110857 14.4309 0.332571 15.2589C 0.554571 16.0871 0.898 16.8077 1.364 17.4211C 1.82971 18.0349 2.42486 18.5191 3.14914 18.8737C 3.87343 19.2289 4.73829 19.4063 5.74429 19.4063C 6.37971 19.4063 6.938 19.332 7.41857 19.1846C 7.89886 19.0369 8.31686 18.8591 8.67171 18.652C 9.02657 18.4451 9.322 18.2346 9.55886 18.02C 9.79514 17.806 9.97257 17.6397 10.0911 17.5209C 10.2537 17.3586 10.394 17.1883 10.5126 17.0109C 10.6306 16.8334 10.7489 16.6414 10.8671 16.4343C 11.4143 18.386 12.9223 19.3617 15.3917 19.3617C 16.1603 19.3617 16.9331 19.2177 17.7091 18.9294C 18.1203 18.7766 18.5149 18.5951 18.8949 18.3886L 19.3506 13.9994C 19.2983 14.0269 19.2489 14.0586 19.1951 14.0834L 19.1951 14.0834Z"/>
<path id="path7_fill" fill-rule="evenodd" d="M 17.7203 14.0611C 17.4543 14.0611 17.2357 14.0169 17.066 13.928C 16.896 13.8391 16.7666 13.7211 16.678 13.5731C 16.5891 13.4254 16.5297 13.2554 16.5006 13.0631C 16.4706 12.8711 16.4706 12.6786 16.5006 12.4863L 17.7423 0.288571L 10.978 0L 9.69171 12.5529C 9.51429 13.0114 9.28857 13.3923 9.01543 13.6951C 8.74171 13.9983 8.40543 14.1497 8.006 14.1497C 7.54771 14.1497 7.23343 13.9429 7.06371 13.5289C 6.89343 13.1151 6.838 12.6051 6.89743 11.9986L 8.07286 0.310571L 1.28629 0L 0.0662857 11.8654C 0.022 12.2943 0 12.7231 0 13.1517C 0 14.0537 0.092 14.8854 0.277143 15.6469C 0.462 16.4086 0.761143 17.066 1.17514 17.6209C 1.58914 18.1751 2.12514 18.6074 2.78314 18.918C 3.44086 19.2286 4.25057 19.3837 5.21171 19.3837C 5.77343 19.3837 6.28343 19.3206 6.742 19.1954C 7.20029 19.0697 7.60714 18.9109 7.96171 18.7186C 8.31686 18.5266 8.61971 18.3269 8.87114 18.1197C 9.12257 17.9129 9.33686 17.7203 9.51429 17.5429C 9.82486 17.218 10.0909 16.826 10.3129 16.3674C 10.6083 17.2991 11.1257 18.0349 11.8651 18.5743C 12.6043 19.114 13.5951 19.3837 14.8371 19.3837C 15.5614 19.3837 16.2934 19.2509 17.0329 18.9846C 17.3957 18.854 17.7483 18.6986 18.0917 18.52L 18.5654 13.9577C 18.308 14.0243 18.0283 14.0611 17.7203 14.0611"/>
<path id="path8_fill" fill-rule="evenodd" d="M 13.872 10.626C 13.6414 10.0094 13.3306 9.45543 12.948 8.97914C 12.5757 8.51629 12.1466 8.10943 11.6734 7.76943C 11.2411 7.458 10.7889 7.17229 10.328 6.91886C 9.89114 6.67971 9.45714 6.45571 9.03857 6.25343C 8.66514 6.07257 8.32943 5.88914 8.04114 5.70829C 7.80371 5.55914 7.61571 5.40457 7.482 5.24943C 7.428 5.18657 7.41771 5.14429 7.41771 5.08857C 7.41771 5.05343 7.41914 5.02514 7.42114 5.00257C 7.47829 4.98657 7.57086 4.97057 7.71371 4.97057C 8.04029 4.97057 8.39743 5.03314 8.77371 5.156C 9.20286 5.29657 9.612 5.46486 9.98971 5.65571C 10.3777 5.85229 10.7294 6.05714 11.0351 6.26486C 11.4171 6.52486 11.6129 6.68286 11.7097 6.76971L 13.0954 8.00971L 13.8117 1.19543L 13.2117 0.904C 12.8214 0.714286 12.396 0.557143 11.9449 0.436C 11.5194 0.322571 11.0943 0.232857 10.6809 0.168571C 10.2691 0.105143 9.87486 0.0605714 9.50971 0.0365714C 9.142 0.012 8.846 0 8.604 0C 7.44171 0 6.38057 0.151143 5.45029 0.449429C 4.50571 0.752286 3.68857 1.17229 3.022 1.69743C 2.33629 2.23714 1.80286 2.87229 1.43629 3.584C 1.06114 4.31057 0.871143 5.084 0.871143 5.88314C 0.871143 6.62943 0.988 7.306 1.21743 7.89286C 1.44 8.464 1.73943 8.98143 2.10629 9.42971C 2.464 9.868 2.87571 10.2554 3.32971 10.5806C 3.74257 10.8769 4.17229 11.1546 4.60714 11.4054C 5.02943 11.6494 5.44343 11.8791 5.836 12.0863C 6.18829 12.2734 6.50514 12.4649 6.77571 12.6546C 6.99857 12.8114 7.17514 12.976 7.3 13.1431C 7.36514 13.2309 7.39286 13.3171 7.39286 13.4317C 7.39286 13.8666 7.238 14.0037 7.17971 14.0554C 7.00143 14.2129 6.75029 14.2894 6.412 14.2894C 6.088 14.2894 5.74 14.2217 5.37743 14.0877C 4.96886 13.9374 4.562 13.7391 4.16857 13.4983C 3.76343 13.25 3.37943 12.9723 3.02629 12.6723C 2.67829 12.3771 2.38057 12.0823 2.14171 11.7954L 0.68 10.0426L 0 17.2169L 0.287143 17.5286C 0.592286 17.8597 0.995429 18.1411 1.51857 18.388C 1.97229 18.6026 2.47429 18.7857 3.01029 18.932C 3.53086 19.0743 4.07229 19.186 4.61971 19.2643C 5.17543 19.3434 5.70457 19.3837 6.19257 19.3837C 7.254 19.3837 8.26771 19.2606 9.20543 19.0174C 10.1786 18.7654 11.0423 18.3691 11.7734 17.8386C 12.5254 17.2917 13.128 16.588 13.5651 15.7469C 14.0043 14.9003 14.2269 13.9003 14.2269 12.7746C 14.2269 11.98 14.1074 11.2571 13.872 10.626"/>
</defs>
</svg>
